<svg width="27" height="30" viewBox="0 0 27 30" fill="none" xmlns="http://www.w3.org/2000/svg">
<rect width="27" height="29.5414" fill="black" fill-opacity="0" transform="translate(0 0.458984)"/>
<path d="M23.8846 22.166H25.9615C26.159 22.166 26.2849 22.2298 26.3603 22.3055C26.4359 22.3813 26.5 22.5084 26.5 22.7077V28.9579C26.5 29.1572 26.4359 29.2843 26.3603 29.3601C26.2849 29.4357 26.159 29.4995 25.9615 29.4995H1.03846C0.841014 29.4995 0.715117 29.4357 0.639679 29.3601C0.564103 29.2843 0.5 29.1572 0.5 28.9579V22.7077C0.5 22.5084 0.564103 22.3813 0.639679 22.3055C0.715117 22.2298 0.841014 22.166 1.03846 22.166H3.11538C3.31283 22.166 3.43873 22.2298 3.51417 22.3055C3.58974 22.3813 3.65385 22.5084 3.65385 22.7077V25.3119C3.65385 25.5813 3.74551 25.8449 3.94253 26.0426C4.13969 26.2403 4.40322 26.3328 4.67308 26.3328H22.3269C22.5968 26.3328 22.8603 26.2403 23.0575 26.0426C23.2545 25.8449 23.3462 25.5813 23.3462 25.3119V22.7077C23.3462 22.5084 23.4103 22.3813 23.4858 22.3055C23.5613 22.2298 23.6872 22.166 23.8846 22.166Z" stroke="#266B3C"/>
<path d="M13.1269 21.002L13.1239 20.9991L6.89611 14.8561C6.89565 14.8556 6.89519 14.8551 6.89474 14.8547C6.82131 14.7808 6.78562 14.7264 6.76549 14.681C6.74619 14.6374 6.73047 14.578 6.73047 14.4799C6.73047 14.3818 6.74619 14.3223 6.76549 14.2788C6.78574 14.2331 6.82175 14.1783 6.89611 14.1037L8.34995 12.6453C8.42435 12.5707 8.47882 12.5347 8.52397 12.5146C8.5669 12.4955 8.62555 12.4798 8.72278 12.4798C8.82 12.4798 8.87865 12.4955 8.92158 12.5146C8.96674 12.5347 9.0212 12.5707 9.0956 12.6453L10.1341 13.687L10.1592 13.7122L10.1876 13.7336C10.9348 14.2958 11.9228 13.7434 11.9228 12.9173H11.4228C11.9228 12.9173 11.9228 12.9173 11.9228 12.9172V12.9168V12.9162V12.9154V12.9143V12.9129V12.9113V12.9095V12.9074V12.9051V12.9026V12.8998V12.8968V12.8936V12.8901V12.8864V12.8824V12.8782V12.8738V12.8692V12.8643V12.8592V12.8539V12.8484V12.8426V12.8366V12.8304V12.8239V12.8173V12.8104V12.8033V12.796V12.7885V12.7807V12.7727V12.7646V12.7562V12.7476V12.7388V12.7297V12.7205V12.711V12.7014V12.6915V12.6815V12.6712V12.6607V12.6501V12.6392V12.6281V12.6168V12.6053V12.5937V12.5818V12.5697V12.5575V12.545V12.5323V12.5195V12.5065V12.4932V12.4798V12.4662V12.4524V12.4384V12.4243V12.4099V12.3954V12.3806V12.3657V12.3507V12.3354V12.3199V12.3043V12.2885V12.2725V12.2564V12.2401V12.2236V12.2069V12.19V12.173V12.1558V12.1385V12.1209V12.1032V12.0854V12.0674V12.0492V12.0308V12.0123V11.9936V11.9748V11.9558V11.9366V11.9173V11.8978V11.8782V11.8584V11.8385V11.8184V11.7981V11.7777V11.7572V11.7365V11.7157V11.6947V11.6735V11.6522V11.6308V11.6092V11.5875V11.5657V11.5437V11.5215V11.4992V11.4768V11.4543V11.4316V11.4088V11.3858V11.3627V11.3395V11.3161V11.2926V11.269V11.2453V11.2214V11.1974V11.1732V11.149V11.1246V11.1001V11.0755V11.0507V11.0259V11.0009V10.9758V10.9505V10.9252V10.8997V10.8742V10.8485V10.8227V10.7968V10.7708V10.7446V10.7184V10.692V10.6656V10.639V10.6124V10.5856V10.5587V10.5317V10.5046V10.4775V10.4502V10.4228V10.3953V10.3677V10.3401V10.3123V10.2844V10.2565V10.2284V10.2003V10.1721V10.1437V10.1153V10.0868V10.0583V10.0296V10.0008V9.972V9.94308V9.91408V9.885V9.85583V9.82659V9.79727V9.76787V9.7384V9.70885V9.67922V9.64952V9.61975V9.5899V9.55999V9.53001V9.49995V9.46983V9.43964V9.40939V9.37907V9.34868V9.31824V9.28773V9.25715V9.22652V9.19583V9.16508V9.13427V9.10341V9.07249V9.04151V9.01048V8.9794V8.94826V8.91708V8.88584V8.85456V8.82322V8.79184V8.76041V8.72894V8.69742V8.66586V8.63425V8.60261V8.57092V8.53919V8.50743V8.47562V8.44378V8.4119V8.37999V8.34804V8.31606V8.28405V8.252V8.21993V8.18782V8.15569V8.12353V8.09134V8.05913V8.02689V7.99462V7.96234V7.93003V7.8977V7.86535V7.83298V7.80059V7.76819V7.73577V7.70333V7.67088V7.63841V7.60594V7.57345V7.54094V7.50843V7.47591V7.44339V7.41085V7.37831V7.34576V7.31321V7.28066V7.2481V7.21554V7.18298V7.15042V7.11787V7.08531V7.05276V7.02021V6.98767V6.95513V6.9226V6.89008V6.85757V6.82506V6.79257V6.76009V6.72762V6.69516V6.66272V6.6303V6.59789V6.5655V6.53312V6.50077V6.46843V6.43612V6.40383V6.37156V6.33931V6.30709V6.2749V6.24273V6.21059V6.17847V6.14639V6.11434V6.08231V6.05033V6.01837V5.98645V5.95456V5.92271V5.89089V5.85912V5.82738V5.79568V5.76402V5.73241V5.70083V5.6693V5.63782V5.60638V5.57498V5.54364V5.51234V5.48109V5.44989V5.41874V5.38764V5.3566V5.32561V5.29467V5.26379V5.23297V5.2022V5.17149V5.14085V5.11026V5.07973V5.04927V5.01887V4.98853V4.95826V4.92805V4.89791V4.86784V4.83784V4.8079V4.77804V4.74825V4.71853V4.68888V4.65931V4.62982V4.6004V4.57106V4.54179V4.51261V4.4835V4.45448V4.42554V4.39668V4.3679V4.33921V4.3106V4.28208V4.25365V4.22531V4.19706V4.16889V4.14082V4.11284V4.08495V4.05716V4.02946V4.00186V3.97435V3.94695V3.91964V3.89243V3.86532V3.83831V3.81141V3.78461V3.75791V3.73132V3.70484V3.67846V3.65219V3.62603V3.59997V3.57403V3.54821V3.52249V3.49689V3.4714V3.44603V3.42078V3.39564V3.37062V3.34572V3.32094V3.29628V3.27174V3.24733V3.22304V3.19888V3.17484V3.15093V3.12714V3.10349V3.07996V3.05657V3.0333V3.01017V2.98718V2.96431V2.94158V2.91899V2.89654V2.87422V2.85204V2.83001V2.80811V2.78636V2.76474V2.74327V2.72195V2.70077V2.67974V2.65886V2.63812V2.61753V2.5971V2.57681V2.55668V2.5367V2.51687V2.4972V2.47769V2.45833V2.43913V2.42008V2.4012V2.38248V2.36392V2.34552V2.32729V2.30922V2.29131V2.27357V2.256V2.2386V2.22136V2.2043V2.1874V2.17068V2.15413V2.13776V2.12156V2.10553V2.08968V2.07401V2.05852V2.0432V2.02807V2.01312V1.99835V1.98376V1.96935V1.95514V1.9411V1.92726V1.9136V1.90013V1.88685V1.87376V1.86086V1.84816V1.83564V1.82333V1.8112V1.79928V1.78755V1.77602V1.76468V1.75355V1.74262V1.73189V1.72136V1.71104V1.70092V1.69101V1.6813V1.6718V1.66251V1.65343V1.64455V1.63589V1.62744V1.61921V1.61119V1.60338V1.59579V1.58842V1.58126V1.57432V1.5676V1.56111V1.55483V1.54878V1.54295V1.53734V1.53196V1.5268V1.52188V1.51718V1.5127V1.50846V1.50445V1.50068C11.9228 1.48843 11.9273 1.44963 11.9818 1.37849C12.0371 1.30637 12.1229 1.22936 12.2293 1.15465C12.3332 1.08172 12.4403 1.02236 12.5231 0.980791C12.5392 0.972726 12.5542 0.965447 12.5677 0.958984H14.4317C14.4452 0.965447 14.4602 0.972726 14.4763 0.980791C14.5591 1.02236 14.6662 1.08172 14.7701 1.15465C14.8765 1.22936 14.9623 1.30637 15.0176 1.37849C15.0721 1.44963 15.0766 1.48843 15.0766 1.50068V1.50445V1.50846V1.51269V1.51716V1.52185V1.52676V1.5319V1.53726V1.54285V1.54866V1.55469V1.56094V1.56741V1.57409V1.581V1.58812V1.59545V1.603V1.61077V1.61874V1.62693V1.63533V1.64394V1.65276V1.66179V1.67102V1.68046V1.6901V1.69995V1.71001V1.72026V1.73072V1.74138V1.75223V1.76329V1.77454V1.78599V1.79764V1.80948V1.82152V1.83375V1.84617V1.85878V1.87158V1.88458V1.89776V1.91113V1.92468V1.93842V1.95235V1.96646V1.98075V1.99523V2.00988V2.02472V2.03974V2.05493V2.0703V2.08585V2.10157V2.11747V2.13354V2.14979V2.16621V2.18279V2.19955V2.21648V2.23357V2.25084V2.26826V2.28586V2.30362V2.32154V2.33962V2.35787V2.37628V2.39484V2.41357V2.43245V2.45149V2.47069V2.49004V2.50955V2.52921V2.54902V2.56898V2.5891V2.60936V2.62977V2.65033V2.67104V2.69189V2.71289V2.73403V2.75531V2.77674V2.79831V2.82002V2.84187V2.86385V2.88598V2.90824V2.93063V2.95316V2.97583V2.99863V3.02156V3.04462V3.06781V3.09113V3.11458V3.13815V3.16186V3.18568V3.20964V3.23371V3.25791V3.28223V3.30667V3.33123V3.35591V3.38071V3.40563V3.43066V3.45581V3.48107V3.50644V3.53193V3.55753V3.58324V3.60906V3.63499V3.66102V3.68716V3.71341V3.73977V3.76622V3.79279V3.81945V3.84622V3.87308V3.90005V3.92711V3.95427V3.98153V4.00888V4.03633V4.06387V4.09151V4.11924V4.14706V4.17496V4.20296V4.23105V4.25922V4.28749V4.31583V4.34426V4.37278V4.40138V4.43005V4.45882V4.48766V4.51658V4.54557V4.57465V4.6038V4.63303V4.66233V4.6917V4.72115V4.75067V4.78026V4.80992V4.83965V4.86945V4.89931V4.92924V4.95923V4.98929V5.01942V5.0496V5.07985V5.11016V5.14052V5.17095V5.20143V5.23197V5.26257V5.29322V5.32392V5.35468V5.38549V5.41635V5.44727V5.47823V5.50924V5.5403V5.5714V5.60255V5.63375V5.66498V5.69627V5.72759V5.75895V5.79036V5.8218V5.85329V5.88481V5.91636V5.94795V5.97958V6.01124V6.04293V6.07466V6.10641V6.1382V6.17001V6.20185V6.23372V6.26562V6.29754V6.32949V6.36146V6.39345V6.42546V6.45749V6.48955V6.52162V6.55371V6.58582V6.61794V6.65008V6.68223V6.7144V6.74658V6.77877V6.81097V6.84318V6.87539V6.90762V6.93985V6.97209V7.00433V7.03658V7.06883V7.10109V7.13334V7.16559V7.19785V7.2301V7.26235V7.29459V7.32683V7.35907V7.3913V7.42352V7.45574V7.48794V7.52014V7.55232V7.5845V7.61666V7.64881V7.68094V7.71305V7.74515V7.77724V7.8093V7.84135V7.87337V7.90538V7.93736V7.96932V8.00125V8.03316V8.06505V8.09691V8.12874V8.16054V8.19231V8.22406V8.25577V8.28745V8.31909V8.3507V8.38228V8.41382V8.44533V8.47679V8.50822V8.53961V8.57096V8.60226V8.63352V8.66475V8.69592V8.72705V8.75814V8.78917V8.82016V8.8511V8.882V8.91284V8.94362V8.97436V9.00504V9.03567V9.06624V9.09676V9.12722V9.15762V9.18796V9.21824V9.24846V9.27862V9.30872V9.33875V9.36872V9.39862V9.42846V9.45823V9.48793V9.51756V9.54712V9.5766V9.60602V9.63537V9.66464V9.69383V9.72295V9.75199V9.78096V9.80984V9.83865V9.86738V9.89602V9.92459V9.95307V9.98146V10.0098V10.038V10.0661V10.0942V10.1221V10.15V10.1778V10.2055V10.2331V10.2606V10.288V10.3153V10.3425V10.3696V10.3967V10.4236V10.4504V10.4771V10.5038V10.5303V10.5567V10.583V10.6092V10.6353V10.6613V10.6872V10.7129V10.7386V10.7642V10.7896V10.8149V10.8401V10.8652V10.8902V10.9151V10.9398V10.9645V10.989V11.0134V11.0376V11.0618V11.0858V11.1097V11.1335V11.1571V11.1807V11.204V11.2273V11.2504V11.2735V11.2963V11.3191V11.3417V11.3642V11.3865V11.4087V11.4308V11.4527V11.4745V11.4961V11.5176V11.539V11.5602V11.5813V11.6022V11.623V11.6437V11.6642V11.6845V11.7047V11.7248V11.7447V11.7644V11.784V11.8035V11.8228V11.8419V11.8609V11.8797V11.8983V11.9168V11.9352V11.9533V11.9714V11.9892V12.0069V12.0244V12.0418V12.059V12.076V12.0929V12.1095V12.1261V12.1424V12.1586V12.1746V12.1904V12.2061V12.2215V12.2368V12.2519V12.2669V12.2816V12.2962V12.3106V12.3248V12.3389V12.3527V12.3664V12.3799V12.3931V12.4062V12.4192V12.4319V12.4444V12.4568V12.4689V12.4809V12.4926V12.5042V12.5155V12.5267V12.5377V12.5485V12.559V12.5694V12.5796V12.5895V12.5993V12.6089V12.6182V12.6274V12.6363V12.645V12.6536V12.6619V12.67V12.6779V12.6855V12.693V12.7002V12.7073V12.7141V12.7207V12.727V12.7332V12.7391V12.7449V12.7503V12.7556V12.7607V12.7655V12.7701V12.7744V12.7786V12.7825V12.7862V12.7896V12.7928V12.7958V12.7986V12.8011V12.8034V12.8054V12.8072V12.8088V12.8101V12.8112V12.8121V12.8127V12.813C15.0766 12.8131 15.0766 12.8132 15.5766 12.8132H15.0766C15.0766 13.7979 16.2518 14.1983 16.8653 13.5828L17.9038 12.5412C17.9782 12.4665 18.0327 12.4306 18.0778 12.4104C18.1208 12.3913 18.1794 12.3756 18.2766 12.3756C18.3738 12.3756 18.4325 12.3913 18.4754 12.4104C18.5206 12.4306 18.575 12.4665 18.6494 12.5412L20.1033 13.9995C20.1776 14.0741 20.2137 14.1289 20.2339 14.1746C20.2532 14.2182 20.2689 14.2776 20.2689 14.3757C20.2689 14.4738 20.2532 14.5332 20.2339 14.5768C20.2137 14.6225 20.1776 14.6773 20.1033 14.7519L13.8725 21.002C13.8255 21.0492 13.7568 21.0933 13.677 21.1254C13.595 21.1583 13.5285 21.1675 13.4997 21.1675C13.4709 21.1675 13.4044 21.1583 13.3224 21.1254C13.2426 21.0933 13.1739 21.0492 13.1269 21.002Z" stroke="#266B3C"/>
</svg>
