<svg width="43" height="22" viewBox="0 0 43 22" fill="none" xmlns="http://www.w3.org/2000/svg">
<path d="M0.24 22V1.196H13.4V5.088H5.42V9.484H11.58V13.264H5.42V18.024H14.212V22H0.24Z" fill="#FF5500"/>
<path d="M13.4939 22V1.196H15.5379C16.4899 1.196 17.4419 1.15867 18.3939 1.084C19.3552 1.00933 20.3539 0.971999 21.3899 0.971999C23.0606 0.971999 24.4932 1.21 25.6879 1.686C26.8826 2.15267 27.7972 2.92267 28.4319 3.996C29.0759 5.06933 29.3979 6.50667 29.3979 8.308C29.3979 10.772 28.6652 12.6713 27.1999 14.006C25.7439 15.3407 23.6299 16.008 20.8579 16.008C20.3166 16.008 19.8826 16.0033 19.5559 15.994C19.2292 15.9847 18.9539 15.98 18.7299 15.98V22H13.4939ZM18.7299 12.144C19.0286 12.172 19.3506 12.2 19.6959 12.228C20.0412 12.2467 20.4286 12.256 20.8579 12.256C21.5112 12.256 22.0946 12.13 22.6079 11.878C23.1306 11.6167 23.5412 11.1967 23.8399 10.618C24.1479 10.03 24.3019 9.25067 24.3019 8.28C24.3019 7.16 24.0126 6.25933 23.4339 5.578C22.8646 4.88733 21.9686 4.56533 20.7459 4.612C20.4286 4.612 20.0879 4.626 19.7239 4.654C19.3599 4.67267 19.0286 4.70533 18.7299 4.752V12.144Z" fill="#00D000"/>
<path d="M32.1118 22V5.2H26.5678V1.196H42.9198V5.2H37.3758V22H32.1118Z" fill="#183EFF"/>
</svg>
